<?xml version="1.0" encoding="UTF-8" standalone="no"?>
<svg width="32px" height="32px" viewBox="0 0 32 32" version="1.1" xmlns="http://www.w3.org/2000/svg" xmlns:xlink="http://www.w3.org/1999/xlink">
    <!-- Generator: Sketch 47.1 (45422) - http://www.bohemiancoding.com/sketch -->
    <title>小拍摄</title>
    <desc>Created with Sketch.</desc>
    <defs></defs>
    <g id="正稿" stroke="none" stroke-width="1" fill="none" fill-rule="evenodd">
        <g id="小拍摄" fill="#3DA5FE">
            <path d="M1.5978333,28.9887442 C0.713231862,28.9887442 0,28.262611 0,27.3668803 L0,9.49475339 C0,8.59974505 0.716206498,7.87288954 1.59969199,7.87288954 L6.40030801,7.87288954 C7.29005337,7.87288954 8.11727897,7.15853018 8.26194992,6.27732325 L8.53805008,4.59556628 C8.68195724,3.71901163 9.51458552,3 10.3960714,3 L21.6039286,3 C22.4859018,3 23.317279,3.71435936 23.4619499,4.59556628 L23.7380501,6.27732325 C23.8819572,7.1538779 24.7162065,7.87288954 25.599692,7.87288954 L30.400308,7.87288954 C31.2900534,7.87288954 32,8.59902272 32,9.49475339 L32,18.3212117 L32,29 L1.5978333,28.9887442 Z M16,23.3037064 C19.0927946,23.3037064 21.6,20.7584283 21.6,17.6186686 C21.6,14.4789089 19.0927946,11.9336308 16,11.9336308 C12.9072054,11.9336308 10.4,14.4789089 10.4,17.6186686 C10.4,20.7584283 12.9072054,23.3037064 16,23.3037064 Z" id="Combined-Shape"></path>
        </g>
    </g>
</svg>